<?xml version="1.0" encoding="utf-8" standalone="no"?>
<!DOCTYPE svg PUBLIC "-//W3C//DTD SVG 1.1//EN"
  "http://www.w3.org/Graphics/SVG/1.1/DTD/svg11.dtd">
<svg xmlns:xlink="http://www.w3.org/1999/xlink" width="481.889764pt" height="70.866142pt" viewBox="0 0 481.889764 70.866142" xmlns="http://www.w3.org/2000/svg" version="1.1">
 <metadata>
  <rdf:RDF xmlns:dc="http://purl.org/dc/elements/1.1/" xmlns:cc="http://creativecommons.org/ns#" xmlns:rdf="http://www.w3.org/1999/02/22-rdf-syntax-ns#">
   <cc:Work>
    <dc:type rdf:resource="http://purl.org/dc/dcmitype/StillImage"/>
    <dc:date>2024-01-06T16:50:09.173374</dc:date>
    <dc:format>image/svg+xml</dc:format>
    <dc:creator>
     <cc:Agent>
      <dc:title>Matplotlib v3.8.2, https://matplotlib.org/</dc:title>
     </cc:Agent>
    </dc:creator>
   </cc:Work>
  </rdf:RDF>
 </metadata>
 <defs>
  <style type="text/css">*{stroke-linejoin: round; stroke-linecap: butt}</style>
 </defs>
 <g id="figure_1">
  <g id="patch_1">
   <path d="M 0 70.866142 
L 481.889764 70.866142 
L 481.889764 0 
L 0 0 
z
" style="fill: #ffffff"/>
  </g>
  <g id="axes_1">
   <g id="patch_2">
    <path d="M 21.6 52.866142 
L 481.169764 52.866142 
L 481.169764 14.4 
L 21.6 14.4 
z
" style="fill: #f4faf4"/>
   </g>
   <g id="matplotlib.axis_1">
    <g id="xtick_1">
     <g id="line2d_1">
      <path d="M 51.937063 52.866142 
L 51.937063 14.4 
" clip-path="url(#pf3feafe27e)" style="fill: none; stroke: #dfdfdf; stroke-width: 0.8; stroke-linecap: square"/>
     </g>
     <g id="line2d_2">
      <defs>
       <path id="mb79fc5d49a" d="M 0 0 
L 0 3.5 
" style="stroke: #555555; stroke-width: 0.8"/>
      </defs>
      <g>
       <use xlink:href="#mb79fc5d49a" x="51.937063" y="52.866142" style="fill: #555555; stroke: #555555; stroke-width: 0.8"/>
      </g>
     </g>
     <g id="text_1">
      <!-- ~5b -->
      <g style="fill: #555555" transform="translate(41.39175 67.464579) scale(0.1 -0.1)">
       <defs>
        <path id="DejaVuSans-7e" d="M 4684 2553 
L 4684 1997 
Q 4356 1750 4076 1644 
Q 3797 1538 3494 1538 
Q 3150 1538 2694 1722 
Q 2659 1734 2644 1741 
Q 2622 1750 2575 1766 
Q 2091 1959 1797 1959 
Q 1522 1959 1253 1839 
Q 984 1719 678 1459 
L 678 2016 
Q 1006 2263 1286 2370 
Q 1566 2478 1869 2478 
Q 2213 2478 2672 2291 
Q 2703 2278 2719 2272 
Q 2744 2263 2788 2247 
Q 3272 2053 3566 2053 
Q 3834 2053 4098 2172 
Q 4363 2291 4684 2553 
z
" transform="scale(0.015625)"/>
        <path id="DejaVuSans-35" d="M 691 4666 
L 3169 4666 
L 3169 4134 
L 1269 4134 
L 1269 2991 
Q 1406 3038 1543 3061 
Q 1681 3084 1819 3084 
Q 2600 3084 3056 2656 
Q 3513 2228 3513 1497 
Q 3513 744 3044 326 
Q 2575 -91 1722 -91 
Q 1428 -91 1123 -41 
Q 819 9 494 109 
L 494 744 
Q 775 591 1075 516 
Q 1375 441 1709 441 
Q 2250 441 2565 725 
Q 2881 1009 2881 1497 
Q 2881 1984 2565 2268 
Q 2250 2553 1709 2553 
Q 1456 2553 1204 2497 
Q 953 2441 691 2322 
L 691 4666 
z
" transform="scale(0.015625)"/>
        <path id="DejaVuSans-62" d="M 3116 1747 
Q 3116 2381 2855 2742 
Q 2594 3103 2138 3103 
Q 1681 3103 1420 2742 
Q 1159 2381 1159 1747 
Q 1159 1113 1420 752 
Q 1681 391 2138 391 
Q 2594 391 2855 752 
Q 3116 1113 3116 1747 
z
M 1159 2969 
Q 1341 3281 1617 3432 
Q 1894 3584 2278 3584 
Q 2916 3584 3314 3078 
Q 3713 2572 3713 1747 
Q 3713 922 3314 415 
Q 2916 -91 2278 -91 
Q 1894 -91 1617 61 
Q 1341 213 1159 525 
L 1159 0 
L 581 0 
L 581 4863 
L 1159 4863 
L 1159 2969 
z
" transform="scale(0.015625)"/>
       </defs>
       <use xlink:href="#DejaVuSans-7e"/>
       <use xlink:href="#DejaVuSans-35" x="83.789062"/>
       <use xlink:href="#DejaVuSans-62" x="147.412109"/>
      </g>
     </g>
    </g>
    <g id="xtick_2">
     <g id="line2d_3">
      <path d="M 72.93157 52.866142 
L 72.93157 14.4 
" clip-path="url(#pf3feafe27e)" style="fill: none; stroke: #dfdfdf; stroke-width: 0.8; stroke-linecap: square"/>
     </g>
     <g id="line2d_4">
      <g>
       <use xlink:href="#mb79fc5d49a" x="72.93157" y="52.866142" style="fill: #555555; stroke: #555555; stroke-width: 0.8"/>
      </g>
     </g>
    </g>
    <g id="xtick_3">
     <g id="line2d_5">
      <path d="M 93.926077 52.866142 
L 93.926077 14.4 
" clip-path="url(#pf3feafe27e)" style="fill: none; stroke: #dfdfdf; stroke-width: 0.8; stroke-linecap: square"/>
     </g>
     <g id="line2d_6">
      <g>
       <use xlink:href="#mb79fc5d49a" x="93.926077" y="52.866142" style="fill: #555555; stroke: #555555; stroke-width: 0.8"/>
      </g>
     </g>
     <g id="text_2">
      <!-- 6a -->
      <g style="fill: #555555" transform="translate(87.680765 67.464579) scale(0.1 -0.1)">
       <defs>
        <path id="DejaVuSans-36" d="M 2113 2584 
Q 1688 2584 1439 2293 
Q 1191 2003 1191 1497 
Q 1191 994 1439 701 
Q 1688 409 2113 409 
Q 2538 409 2786 701 
Q 3034 994 3034 1497 
Q 3034 2003 2786 2293 
Q 2538 2584 2113 2584 
z
M 3366 4563 
L 3366 3988 
Q 3128 4100 2886 4159 
Q 2644 4219 2406 4219 
Q 1781 4219 1451 3797 
Q 1122 3375 1075 2522 
Q 1259 2794 1537 2939 
Q 1816 3084 2150 3084 
Q 2853 3084 3261 2657 
Q 3669 2231 3669 1497 
Q 3669 778 3244 343 
Q 2819 -91 2113 -91 
Q 1303 -91 875 529 
Q 447 1150 447 2328 
Q 447 3434 972 4092 
Q 1497 4750 2381 4750 
Q 2619 4750 2861 4703 
Q 3103 4656 3366 4563 
z
" transform="scale(0.015625)"/>
        <path id="DejaVuSans-61" d="M 2194 1759 
Q 1497 1759 1228 1600 
Q 959 1441 959 1056 
Q 959 750 1161 570 
Q 1363 391 1709 391 
Q 2188 391 2477 730 
Q 2766 1069 2766 1631 
L 2766 1759 
L 2194 1759 
z
M 3341 1997 
L 3341 0 
L 2766 0 
L 2766 531 
Q 2569 213 2275 61 
Q 1981 -91 1556 -91 
Q 1019 -91 701 211 
Q 384 513 384 1019 
Q 384 1609 779 1909 
Q 1175 2209 1959 2209 
L 2766 2209 
L 2766 2266 
Q 2766 2663 2505 2880 
Q 2244 3097 1772 3097 
Q 1472 3097 1187 3025 
Q 903 2953 641 2809 
L 641 3341 
Q 956 3463 1253 3523 
Q 1550 3584 1831 3584 
Q 2591 3584 2966 3190 
Q 3341 2797 3341 1997 
z
" transform="scale(0.015625)"/>
       </defs>
       <use xlink:href="#DejaVuSans-36"/>
       <use xlink:href="#DejaVuSans-61" x="63.623047"/>
      </g>
     </g>
    </g>
    <g id="xtick_4">
     <g id="line2d_7">
      <path d="M 114.920585 52.866142 
L 114.920585 14.4 
" clip-path="url(#pf3feafe27e)" style="fill: none; stroke: #dfdfdf; stroke-width: 0.8; stroke-linecap: square"/>
     </g>
     <g id="line2d_8">
      <g>
       <use xlink:href="#mb79fc5d49a" x="114.920585" y="52.866142" style="fill: #555555; stroke: #555555; stroke-width: 0.8"/>
      </g>
     </g>
    </g>
    <g id="xtick_5">
     <g id="line2d_9">
      <path d="M 135.915092 52.866142 
L 135.915092 14.4 
" clip-path="url(#pf3feafe27e)" style="fill: none; stroke: #dfdfdf; stroke-width: 0.8; stroke-linecap: square"/>
     </g>
     <g id="line2d_10">
      <g>
       <use xlink:href="#mb79fc5d49a" x="135.915092" y="52.866142" style="fill: #555555; stroke: #555555; stroke-width: 0.8"/>
      </g>
     </g>
     <g id="text_3">
      <!-- 6b -->
      <g style="fill: #555555" transform="translate(129.559623 67.464579) scale(0.1 -0.1)">
       <use xlink:href="#DejaVuSans-36"/>
       <use xlink:href="#DejaVuSans-62" x="63.623047"/>
      </g>
     </g>
    </g>
    <g id="xtick_6">
     <g id="line2d_11">
      <path d="M 156.909599 52.866142 
L 156.909599 14.4 
" clip-path="url(#pf3feafe27e)" style="fill: none; stroke: #dfdfdf; stroke-width: 0.8; stroke-linecap: square"/>
     </g>
     <g id="line2d_12">
      <g>
       <use xlink:href="#mb79fc5d49a" x="156.909599" y="52.866142" style="fill: #555555; stroke: #555555; stroke-width: 0.8"/>
      </g>
     </g>
    </g>
    <g id="xtick_7">
     <g id="line2d_13">
      <path d="M 177.904107 52.866142 
L 177.904107 14.4 
" clip-path="url(#pf3feafe27e)" style="fill: none; stroke: #dfdfdf; stroke-width: 0.8; stroke-linecap: square"/>
     </g>
     <g id="line2d_14">
      <g>
       <use xlink:href="#mb79fc5d49a" x="177.904107" y="52.866142" style="fill: #555555; stroke: #555555; stroke-width: 0.8"/>
      </g>
     </g>
     <g id="text_4">
      <!-- 6c -->
      <g style="fill: #555555" transform="translate(171.973638 67.464579) scale(0.1 -0.1)">
       <defs>
        <path id="DejaVuSans-63" d="M 3122 3366 
L 3122 2828 
Q 2878 2963 2633 3030 
Q 2388 3097 2138 3097 
Q 1578 3097 1268 2742 
Q 959 2388 959 1747 
Q 959 1106 1268 751 
Q 1578 397 2138 397 
Q 2388 397 2633 464 
Q 2878 531 3122 666 
L 3122 134 
Q 2881 22 2623 -34 
Q 2366 -91 2075 -91 
Q 1284 -91 818 406 
Q 353 903 353 1747 
Q 353 2603 823 3093 
Q 1294 3584 2113 3584 
Q 2378 3584 2631 3529 
Q 2884 3475 3122 3366 
z
" transform="scale(0.015625)"/>
       </defs>
       <use xlink:href="#DejaVuSans-36"/>
       <use xlink:href="#DejaVuSans-63" x="63.623047"/>
      </g>
     </g>
    </g>
    <g id="xtick_8">
     <g id="line2d_15">
      <path d="M 198.898614 52.866142 
L 198.898614 14.4 
" clip-path="url(#pf3feafe27e)" style="fill: none; stroke: #dfdfdf; stroke-width: 0.8; stroke-linecap: square"/>
     </g>
     <g id="line2d_16">
      <g>
       <use xlink:href="#mb79fc5d49a" x="198.898614" y="52.866142" style="fill: #555555; stroke: #555555; stroke-width: 0.8"/>
      </g>
     </g>
    </g>
    <g id="xtick_9">
     <g id="line2d_17">
      <path d="M 219.893121 52.866142 
L 219.893121 14.4 
" clip-path="url(#pf3feafe27e)" style="fill: none; stroke: #dfdfdf; stroke-width: 0.8; stroke-linecap: square"/>
     </g>
     <g id="line2d_18">
      <g>
       <use xlink:href="#mb79fc5d49a" x="219.893121" y="52.866142" style="fill: #555555; stroke: #555555; stroke-width: 0.8"/>
      </g>
     </g>
     <g id="text_5">
      <!-- 7a -->
      <g style="fill: #555555" transform="translate(213.647809 67.464579) scale(0.1 -0.1)">
       <defs>
        <path id="DejaVuSans-37" d="M 525 4666 
L 3525 4666 
L 3525 4397 
L 1831 0 
L 1172 0 
L 2766 4134 
L 525 4134 
L 525 4666 
z
" transform="scale(0.015625)"/>
       </defs>
       <use xlink:href="#DejaVuSans-37"/>
       <use xlink:href="#DejaVuSans-61" x="63.623047"/>
      </g>
     </g>
    </g>
    <g id="xtick_10">
     <g id="line2d_19">
      <path d="M 240.887628 52.866142 
L 240.887628 14.4 
" clip-path="url(#pf3feafe27e)" style="fill: none; stroke: #dfdfdf; stroke-width: 0.8; stroke-linecap: square"/>
     </g>
     <g id="line2d_20">
      <g>
       <use xlink:href="#mb79fc5d49a" x="240.887628" y="52.866142" style="fill: #555555; stroke: #555555; stroke-width: 0.8"/>
      </g>
     </g>
    </g>
    <g id="xtick_11">
     <g id="line2d_21">
      <path d="M 261.882136 52.866142 
L 261.882136 14.4 
" clip-path="url(#pf3feafe27e)" style="fill: none; stroke: #dfdfdf; stroke-width: 0.8; stroke-linecap: square"/>
     </g>
     <g id="line2d_22">
      <g>
       <use xlink:href="#mb79fc5d49a" x="261.882136" y="52.866142" style="fill: #555555; stroke: #555555; stroke-width: 0.8"/>
      </g>
     </g>
     <g id="text_6">
      <!-- 7b -->
      <g style="fill: #555555" transform="translate(255.526667 67.464579) scale(0.1 -0.1)">
       <use xlink:href="#DejaVuSans-37"/>
       <use xlink:href="#DejaVuSans-62" x="63.623047"/>
      </g>
     </g>
    </g>
    <g id="xtick_12">
     <g id="line2d_23">
      <path d="M 282.876643 52.866142 
L 282.876643 14.4 
" clip-path="url(#pf3feafe27e)" style="fill: none; stroke: #dfdfdf; stroke-width: 0.8; stroke-linecap: square"/>
     </g>
     <g id="line2d_24">
      <g>
       <use xlink:href="#mb79fc5d49a" x="282.876643" y="52.866142" style="fill: #555555; stroke: #555555; stroke-width: 0.8"/>
      </g>
     </g>
    </g>
    <g id="xtick_13">
     <g id="line2d_25">
      <path d="M 303.87115 52.866142 
L 303.87115 14.4 
" clip-path="url(#pf3feafe27e)" style="fill: none; stroke: #dfdfdf; stroke-width: 0.8; stroke-linecap: square"/>
     </g>
     <g id="line2d_26">
      <g>
       <use xlink:href="#mb79fc5d49a" x="303.87115" y="52.866142" style="fill: #555555; stroke: #555555; stroke-width: 0.8"/>
      </g>
     </g>
     <g id="text_7">
      <!-- 7c -->
      <g style="fill: #555555" transform="translate(297.940681 67.464579) scale(0.1 -0.1)">
       <use xlink:href="#DejaVuSans-37"/>
       <use xlink:href="#DejaVuSans-63" x="63.623047"/>
      </g>
     </g>
    </g>
    <g id="xtick_14">
     <g id="line2d_27">
      <path d="M 324.865657 52.866142 
L 324.865657 14.4 
" clip-path="url(#pf3feafe27e)" style="fill: none; stroke: #dfdfdf; stroke-width: 0.8; stroke-linecap: square"/>
     </g>
     <g id="line2d_28">
      <g>
       <use xlink:href="#mb79fc5d49a" x="324.865657" y="52.866142" style="fill: #555555; stroke: #555555; stroke-width: 0.8"/>
      </g>
     </g>
    </g>
    <g id="xtick_15">
     <g id="line2d_29">
      <path d="M 345.860165 52.866142 
L 345.860165 14.4 
" clip-path="url(#pf3feafe27e)" style="fill: none; stroke: #dfdfdf; stroke-width: 0.8; stroke-linecap: square"/>
     </g>
     <g id="line2d_30">
      <g>
       <use xlink:href="#mb79fc5d49a" x="345.860165" y="52.866142" style="fill: #555555; stroke: #555555; stroke-width: 0.8"/>
      </g>
     </g>
     <g id="text_8">
      <!-- 8a -->
      <g style="fill: #555555" transform="translate(339.614852 67.464579) scale(0.1 -0.1)">
       <defs>
        <path id="DejaVuSans-38" d="M 2034 2216 
Q 1584 2216 1326 1975 
Q 1069 1734 1069 1313 
Q 1069 891 1326 650 
Q 1584 409 2034 409 
Q 2484 409 2743 651 
Q 3003 894 3003 1313 
Q 3003 1734 2745 1975 
Q 2488 2216 2034 2216 
z
M 1403 2484 
Q 997 2584 770 2862 
Q 544 3141 544 3541 
Q 544 4100 942 4425 
Q 1341 4750 2034 4750 
Q 2731 4750 3128 4425 
Q 3525 4100 3525 3541 
Q 3525 3141 3298 2862 
Q 3072 2584 2669 2484 
Q 3125 2378 3379 2068 
Q 3634 1759 3634 1313 
Q 3634 634 3220 271 
Q 2806 -91 2034 -91 
Q 1263 -91 848 271 
Q 434 634 434 1313 
Q 434 1759 690 2068 
Q 947 2378 1403 2484 
z
M 1172 3481 
Q 1172 3119 1398 2916 
Q 1625 2713 2034 2713 
Q 2441 2713 2670 2916 
Q 2900 3119 2900 3481 
Q 2900 3844 2670 4047 
Q 2441 4250 2034 4250 
Q 1625 4250 1398 4047 
Q 1172 3844 1172 3481 
z
" transform="scale(0.015625)"/>
       </defs>
       <use xlink:href="#DejaVuSans-38"/>
       <use xlink:href="#DejaVuSans-61" x="63.623047"/>
      </g>
     </g>
    </g>
    <g id="xtick_16">
     <g id="line2d_31">
      <path d="M 366.854672 52.866142 
L 366.854672 14.4 
" clip-path="url(#pf3feafe27e)" style="fill: none; stroke: #dfdfdf; stroke-width: 0.8; stroke-linecap: square"/>
     </g>
     <g id="line2d_32">
      <g>
       <use xlink:href="#mb79fc5d49a" x="366.854672" y="52.866142" style="fill: #555555; stroke: #555555; stroke-width: 0.8"/>
      </g>
     </g>
    </g>
    <g id="xtick_17">
     <g id="line2d_33">
      <path d="M 387.849179 52.866142 
L 387.849179 14.4 
" clip-path="url(#pf3feafe27e)" style="fill: none; stroke: #dfdfdf; stroke-width: 0.8; stroke-linecap: square"/>
     </g>
     <g id="line2d_34">
      <g>
       <use xlink:href="#mb79fc5d49a" x="387.849179" y="52.866142" style="fill: #555555; stroke: #555555; stroke-width: 0.8"/>
      </g>
     </g>
     <g id="text_9">
      <!-- 8b -->
      <g style="fill: #555555" transform="translate(381.49371 67.464579) scale(0.1 -0.1)">
       <use xlink:href="#DejaVuSans-38"/>
       <use xlink:href="#DejaVuSans-62" x="63.623047"/>
      </g>
     </g>
    </g>
    <g id="xtick_18">
     <g id="line2d_35">
      <path d="M 408.843686 52.866142 
L 408.843686 14.4 
" clip-path="url(#pf3feafe27e)" style="fill: none; stroke: #dfdfdf; stroke-width: 0.8; stroke-linecap: square"/>
     </g>
     <g id="line2d_36">
      <g>
       <use xlink:href="#mb79fc5d49a" x="408.843686" y="52.866142" style="fill: #555555; stroke: #555555; stroke-width: 0.8"/>
      </g>
     </g>
    </g>
    <g id="xtick_19">
     <g id="line2d_37">
      <path d="M 429.838194 52.866142 
L 429.838194 14.4 
" clip-path="url(#pf3feafe27e)" style="fill: none; stroke: #dfdfdf; stroke-width: 0.8; stroke-linecap: square"/>
     </g>
     <g id="line2d_38">
      <g>
       <use xlink:href="#mb79fc5d49a" x="429.838194" y="52.866142" style="fill: #555555; stroke: #555555; stroke-width: 0.8"/>
      </g>
     </g>
     <g id="text_10">
      <!-- 8c -->
      <g style="fill: #555555" transform="translate(423.907725 67.464579) scale(0.1 -0.1)">
       <use xlink:href="#DejaVuSans-38"/>
       <use xlink:href="#DejaVuSans-63" x="63.623047"/>
      </g>
     </g>
    </g>
    <g id="xtick_20">
     <g id="line2d_39">
      <path d="M 450.832701 52.866142 
L 450.832701 14.4 
" clip-path="url(#pf3feafe27e)" style="fill: none; stroke: #dfdfdf; stroke-width: 0.8; stroke-linecap: square"/>
     </g>
     <g id="line2d_40">
      <g>
       <use xlink:href="#mb79fc5d49a" x="450.832701" y="52.866142" style="fill: #555555; stroke: #555555; stroke-width: 0.8"/>
      </g>
     </g>
    </g>
   </g>
   <g id="matplotlib.axis_2">
    <g id="ytick_1">
     <g id="line2d_41">
      <path d="M 21.6 52.866142 
L 481.169764 52.866142 
" clip-path="url(#pf3feafe27e)" style="fill: none; stroke: #dfdfdf; stroke-width: 0.8; stroke-linecap: square"/>
     </g>
     <g id="line2d_42">
      <defs>
       <path id="mb6ac8d9e50" d="M 0 0 
L -3.5 0 
" style="stroke: #555555; stroke-width: 0.8"/>
      </defs>
      <g>
       <use xlink:href="#mb6ac8d9e50" x="21.6" y="52.866142" style="fill: #555555; stroke: #555555; stroke-width: 0.8"/>
      </g>
     </g>
     <g id="text_11">
      <!-- 0 -->
      <g style="fill: #555555" transform="translate(8.2375 56.66536) scale(0.1 -0.1)">
       <defs>
        <path id="DejaVuSans-30" d="M 2034 4250 
Q 1547 4250 1301 3770 
Q 1056 3291 1056 2328 
Q 1056 1369 1301 889 
Q 1547 409 2034 409 
Q 2525 409 2770 889 
Q 3016 1369 3016 2328 
Q 3016 3291 2770 3770 
Q 2525 4250 2034 4250 
z
M 2034 4750 
Q 2819 4750 3233 4129 
Q 3647 3509 3647 2328 
Q 3647 1150 3233 529 
Q 2819 -91 2034 -91 
Q 1250 -91 836 529 
Q 422 1150 422 2328 
Q 422 3509 836 4129 
Q 1250 4750 2034 4750 
z
" transform="scale(0.015625)"/>
       </defs>
       <use xlink:href="#DejaVuSans-30"/>
      </g>
     </g>
    </g>
    <g id="ytick_2">
     <g id="line2d_43">
      <path d="M 21.6 33.633071 
L 481.169764 33.633071 
" clip-path="url(#pf3feafe27e)" style="fill: none; stroke: #dfdfdf; stroke-width: 0.8; stroke-linecap: square"/>
     </g>
     <g id="line2d_44">
      <g>
       <use xlink:href="#mb6ac8d9e50" x="21.6" y="33.633071" style="fill: #555555; stroke: #555555; stroke-width: 0.8"/>
      </g>
     </g>
     <g id="text_12">
      <!-- 2 -->
      <g style="fill: #555555" transform="translate(8.2375 37.43229) scale(0.1 -0.1)">
       <defs>
        <path id="DejaVuSans-32" d="M 1228 531 
L 3431 531 
L 3431 0 
L 469 0 
L 469 531 
Q 828 903 1448 1529 
Q 2069 2156 2228 2338 
Q 2531 2678 2651 2914 
Q 2772 3150 2772 3378 
Q 2772 3750 2511 3984 
Q 2250 4219 1831 4219 
Q 1534 4219 1204 4116 
Q 875 4013 500 3803 
L 500 4441 
Q 881 4594 1212 4672 
Q 1544 4750 1819 4750 
Q 2544 4750 2975 4387 
Q 3406 4025 3406 3419 
Q 3406 3131 3298 2873 
Q 3191 2616 2906 2266 
Q 2828 2175 2409 1742 
Q 1991 1309 1228 531 
z
" transform="scale(0.015625)"/>
       </defs>
       <use xlink:href="#DejaVuSans-32"/>
      </g>
     </g>
    </g>
    <g id="ytick_3">
     <g id="line2d_45">
      <path d="M 21.6 14.4 
L 481.169764 14.4 
" clip-path="url(#pf3feafe27e)" style="fill: none; stroke: #dfdfdf; stroke-width: 0.8; stroke-linecap: square"/>
     </g>
     <g id="line2d_46">
      <g>
       <use xlink:href="#mb6ac8d9e50" x="21.6" y="14.4" style="fill: #555555; stroke: #555555; stroke-width: 0.8"/>
      </g>
     </g>
     <g id="text_13">
      <!-- 4 -->
      <g style="fill: #555555" transform="translate(8.2375 18.199219) scale(0.1 -0.1)">
       <defs>
        <path id="DejaVuSans-34" d="M 2419 4116 
L 825 1625 
L 2419 1625 
L 2419 4116 
z
M 2253 4666 
L 3047 4666 
L 3047 1625 
L 3713 1625 
L 3713 1100 
L 3047 1100 
L 3047 0 
L 2419 0 
L 2419 1100 
L 313 1100 
L 313 1709 
L 2253 4666 
z
" transform="scale(0.015625)"/>
       </defs>
       <use xlink:href="#DejaVuSans-34"/>
      </g>
     </g>
    </g>
    <g id="ytick_4">
     <g id="line2d_47">
      <path d="M 21.6 43.249606 
L 481.169764 43.249606 
" clip-path="url(#pf3feafe27e)" style="fill: none; stroke-dasharray: 2.22,0.96; stroke-dashoffset: 0; stroke: #efefef; stroke-width: 0.6"/>
     </g>
     <g id="line2d_48">
      <defs>
       <path id="md8b0f4cd2d" d="M 0 0 
L -2 0 
" style="stroke: #dfdfdf; stroke-width: 0.6"/>
      </defs>
      <g>
       <use xlink:href="#md8b0f4cd2d" x="21.6" y="43.249606" style="fill: #dfdfdf; stroke: #dfdfdf; stroke-width: 0.6"/>
      </g>
     </g>
    </g>
    <g id="ytick_5">
     <g id="line2d_49">
      <path d="M 21.6 24.016535 
L 481.169764 24.016535 
" clip-path="url(#pf3feafe27e)" style="fill: none; stroke-dasharray: 2.22,0.96; stroke-dashoffset: 0; stroke: #efefef; stroke-width: 0.6"/>
     </g>
     <g id="line2d_50">
      <g>
       <use xlink:href="#md8b0f4cd2d" x="21.6" y="24.016535" style="fill: #dfdfdf; stroke: #dfdfdf; stroke-width: 0.6"/>
      </g>
     </g>
    </g>
   </g>
   <g id="patch_3">
    <path d="M 42.489535 52.866142 
L 61.384591 52.866142 
L 61.384591 51.904488 
L 42.489535 51.904488 
z
" clip-path="url(#pf3feafe27e)" style="fill: #0fa1d3"/>
   </g>
   <g id="patch_4">
    <path d="M 63.484042 52.866142 
L 82.379098 52.866142 
L 82.379098 51.904488 
L 63.484042 51.904488 
z
" clip-path="url(#pf3feafe27e)" style="fill: #079dd0"/>
   </g>
   <g id="patch_5">
    <path d="M 84.478549 52.866142 
L 103.373606 52.866142 
L 103.373606 51.904488 
L 84.478549 51.904488 
z
" clip-path="url(#pf3feafe27e)" style="fill: #e2f0b6"/>
   </g>
   <g id="patch_6">
    <path d="M 105.473056 52.866142 
L 124.368113 52.866142 
L 124.368113 51.904488 
L 105.473056 51.904488 
z
" clip-path="url(#pf3feafe27e)" style="fill: #c5e26d"/>
   </g>
   <g id="patch_7">
    <path d="M 126.467564 52.866142 
L 145.36262 52.866142 
L 145.36262 51.904488 
L 126.467564 51.904488 
z
" clip-path="url(#pf3feafe27e)" style="fill: #a8d324"/>
   </g>
   <g id="patch_8">
    <path d="M 147.462071 52.866142 
L 166.357128 52.866142 
L 166.357128 51.904488 
L 147.462071 51.904488 
z
" clip-path="url(#pf3feafe27e)" style="fill: #a8d324"/>
   </g>
   <g id="patch_9">
    <path d="M 168.456578 52.866142 
L 187.351635 52.866142 
L 187.351635 43.249606 
L 168.456578 43.249606 
z
" clip-path="url(#pf3feafe27e)" style="fill: #83b600"/>
   </g>
   <g id="patch_10">
    <path d="M 189.451085 52.866142 
L 208.346142 52.866142 
L 208.346142 51.904488 
L 189.451085 51.904488 
z
" clip-path="url(#pf3feafe27e)" style="fill: #83b600"/>
   </g>
   <g id="patch_11">
    <path d="M 210.445593 52.866142 
L 229.340649 52.866142 
L 229.340649 51.904488 
L 210.445593 51.904488 
z
" clip-path="url(#pf3feafe27e)" style="fill: #ffecc0"/>
   </g>
   <g id="patch_12">
    <path d="M 231.4401 52.866142 
L 250.335157 52.866142 
L 250.335157 43.249606 
L 231.4401 43.249606 
z
" clip-path="url(#pf3feafe27e)" style="fill: #ffd980"/>
   </g>
   <g id="patch_13">
    <path d="M 252.434607 52.866142 
L 271.329664 52.866142 
L 271.329664 51.904488 
L 252.434607 51.904488 
z
" clip-path="url(#pf3feafe27e)" style="fill: #ffc641"/>
   </g>
   <g id="patch_14">
    <path d="M 273.429115 52.866142 
L 292.324171 52.866142 
L 292.324171 51.904488 
L 273.429115 51.904488 
z
" clip-path="url(#pf3feafe27e)" style="fill: #ffb61c"/>
   </g>
   <g id="patch_15">
    <path d="M 294.423622 52.866142 
L 313.318678 52.866142 
L 313.318678 51.904488 
L 294.423622 51.904488 
z
" clip-path="url(#pf3feafe27e)" style="fill: #ffa00e"/>
   </g>
   <g id="patch_16">
    <path d="M 315.418129 52.866142 
L 334.313186 52.866142 
L 334.313186 51.904488 
L 315.418129 51.904488 
z
" clip-path="url(#pf3feafe27e)" style="fill: #ff9105"/>
   </g>
   <g id="patch_17">
    <path d="M 336.412636 52.866142 
L 355.307693 52.866142 
L 355.307693 33.633071 
L 336.412636 33.633071 
z
" clip-path="url(#pf3feafe27e)" style="fill: #ffcaca"/>
   </g>
   <g id="patch_18">
    <path d="M 357.407144 52.866142 
L 376.3022 52.866142 
L 376.3022 33.633071 
L 357.407144 33.633071 
z
" clip-path="url(#pf3feafe27e)" style="fill: #ff9494"/>
   </g>
   <g id="patch_19">
    <path d="M 378.401651 52.866142 
L 397.296707 52.866142 
L 397.296707 51.904488 
L 378.401651 51.904488 
z
" clip-path="url(#pf3feafe27e)" style="fill: #ff5f5f"/>
   </g>
   <g id="patch_20">
    <path d="M 399.396158 52.866142 
L 418.291215 52.866142 
L 418.291215 51.904488 
L 399.396158 51.904488 
z
" clip-path="url(#pf3feafe27e)" style="fill: #f83a3a"/>
   </g>
   <g id="patch_21">
    <path d="M 420.390665 52.866142 
L 439.285722 52.866142 
L 439.285722 51.904488 
L 420.390665 51.904488 
z
" clip-path="url(#pf3feafe27e)" style="fill: #e21d1d"/>
   </g>
   <g id="patch_22">
    <path d="M 441.385173 52.866142 
L 460.280229 52.866142 
L 460.280229 51.904488 
L 441.385173 51.904488 
z
" clip-path="url(#pf3feafe27e)" style="fill: #d30a0a"/>
   </g>
   <g id="patch_23">
    <path d="M 21.6 52.866142 
L 21.6 14.4 
" style="fill: none; stroke: #ffffff; stroke-linejoin: miter; stroke-linecap: square"/>
   </g>
   <g id="patch_24">
    <path d="M 481.169764 52.866142 
L 481.169764 14.4 
" style="fill: none; stroke: #ffffff; stroke-linejoin: miter; stroke-linecap: square"/>
   </g>
   <g id="patch_25">
    <path d="M 21.6 52.866142 
L 481.169764 52.866142 
" style="fill: none; stroke: #ffffff; stroke-linejoin: miter; stroke-linecap: square"/>
   </g>
   <g id="patch_26">
    <path d="M 21.6 14.4 
L 481.169764 14.4 
" style="fill: none; stroke: #ffffff; stroke-linejoin: miter; stroke-linecap: square"/>
   </g>
  </g>
 </g>
 <defs>
  <clipPath id="pf3feafe27e">
   <rect x="21.6" y="14.4" width="459.569764" height="38.466142"/>
  </clipPath>
 </defs>
</svg>
