<?xml version="1.0" encoding="utf-8" standalone="no"?>
<!DOCTYPE svg PUBLIC "-//W3C//DTD SVG 1.1//EN"
  "http://www.w3.org/Graphics/SVG/1.1/DTD/svg11.dtd">
<svg xmlns:xlink="http://www.w3.org/1999/xlink" width="481.889764pt" height="141.732283pt" viewBox="0 0 481.889764 141.732283" xmlns="http://www.w3.org/2000/svg" version="1.1">
 <metadata>
  <rdf:RDF xmlns:dc="http://purl.org/dc/elements/1.1/" xmlns:cc="http://creativecommons.org/ns#" xmlns:rdf="http://www.w3.org/1999/02/22-rdf-syntax-ns#">
   <cc:Work>
    <dc:type rdf:resource="http://purl.org/dc/dcmitype/StillImage"/>
    <dc:date>2024-02-03T13:28:12.267785</dc:date>
    <dc:format>image/svg+xml</dc:format>
    <dc:creator>
     <cc:Agent>
      <dc:title>Matplotlib v3.8.2, https://matplotlib.org/</dc:title>
     </cc:Agent>
    </dc:creator>
   </cc:Work>
  </rdf:RDF>
 </metadata>
 <defs>
  <style type="text/css">*{stroke-linejoin: round; stroke-linecap: butt}</style>
 </defs>
 <g id="figure_1">
  <g id="patch_1">
   <path d="M 0 141.732283 
L 481.889764 141.732283 
L 481.889764 0 
L 0 0 
z
" style="fill: #ffffff"/>
  </g>
  <g id="axes_1">
   <g id="patch_2">
    <path d="M 21.6 123.732283 
L 481.169764 123.732283 
L 481.169764 0.72 
L 21.6 0.72 
z
" style="fill: #f4faf4"/>
   </g>
   <g id="matplotlib.axis_1">
    <g id="xtick_1">
     <g id="line2d_1">
      <path d="M 51.074275 123.732283 
L 51.074275 0.72 
" clip-path="url(#p42ea69e535)" style="fill: none; stroke: #dfdfdf; stroke-width: 0.8; stroke-linecap: square"/>
     </g>
     <g id="line2d_2">
      <defs>
       <path id="me9d3796ef1" d="M 0 0 
L 0 3.5 
" style="stroke: #555555; stroke-width: 0.8"/>
      </defs>
      <g>
       <use xlink:href="#me9d3796ef1" x="51.074275" y="123.732283" style="fill: #555555; stroke: #555555; stroke-width: 0.8"/>
      </g>
     </g>
     <g id="text_1">
      <!-- ~5b -->
      <g style="fill: #555555" transform="translate(40.528963 138.330721) scale(0.1 -0.1)">
       <defs>
        <path id="DejaVuSans-7e" d="M 4684 2553 
L 4684 1997 
Q 4356 1750 4076 1644 
Q 3797 1538 3494 1538 
Q 3150 1538 2694 1722 
Q 2659 1734 2644 1741 
Q 2622 1750 2575 1766 
Q 2091 1959 1797 1959 
Q 1522 1959 1253 1839 
Q 984 1719 678 1459 
L 678 2016 
Q 1006 2263 1286 2370 
Q 1566 2478 1869 2478 
Q 2213 2478 2672 2291 
Q 2703 2278 2719 2272 
Q 2744 2263 2788 2247 
Q 3272 2053 3566 2053 
Q 3834 2053 4098 2172 
Q 4363 2291 4684 2553 
z
" transform="scale(0.015625)"/>
        <path id="DejaVuSans-35" d="M 691 4666 
L 3169 4666 
L 3169 4134 
L 1269 4134 
L 1269 2991 
Q 1406 3038 1543 3061 
Q 1681 3084 1819 3084 
Q 2600 3084 3056 2656 
Q 3513 2228 3513 1497 
Q 3513 744 3044 326 
Q 2575 -91 1722 -91 
Q 1428 -91 1123 -41 
Q 819 9 494 109 
L 494 744 
Q 775 591 1075 516 
Q 1375 441 1709 441 
Q 2250 441 2565 725 
Q 2881 1009 2881 1497 
Q 2881 1984 2565 2268 
Q 2250 2553 1709 2553 
Q 1456 2553 1204 2497 
Q 953 2441 691 2322 
L 691 4666 
z
" transform="scale(0.015625)"/>
        <path id="DejaVuSans-62" d="M 3116 1747 
Q 3116 2381 2855 2742 
Q 2594 3103 2138 3103 
Q 1681 3103 1420 2742 
Q 1159 2381 1159 1747 
Q 1159 1113 1420 752 
Q 1681 391 2138 391 
Q 2594 391 2855 752 
Q 3116 1113 3116 1747 
z
M 1159 2969 
Q 1341 3281 1617 3432 
Q 1894 3584 2278 3584 
Q 2916 3584 3314 3078 
Q 3713 2572 3713 1747 
Q 3713 922 3314 415 
Q 2916 -91 2278 -91 
Q 1894 -91 1617 61 
Q 1341 213 1159 525 
L 1159 0 
L 581 0 
L 581 4863 
L 1159 4863 
L 1159 2969 
z
" transform="scale(0.015625)"/>
       </defs>
       <use xlink:href="#DejaVuSans-7e"/>
       <use xlink:href="#DejaVuSans-35" x="83.789062"/>
       <use xlink:href="#DejaVuSans-62" x="147.412109"/>
      </g>
     </g>
    </g>
    <g id="xtick_2">
     <g id="line2d_3">
      <path d="M 70.151476 123.732283 
L 70.151476 0.72 
" clip-path="url(#p42ea69e535)" style="fill: none; stroke: #dfdfdf; stroke-width: 0.8; stroke-linecap: square"/>
     </g>
     <g id="line2d_4">
      <g>
       <use xlink:href="#me9d3796ef1" x="70.151476" y="123.732283" style="fill: #555555; stroke: #555555; stroke-width: 0.8"/>
      </g>
     </g>
    </g>
    <g id="xtick_3">
     <g id="line2d_5">
      <path d="M 89.228676 123.732283 
L 89.228676 0.72 
" clip-path="url(#p42ea69e535)" style="fill: none; stroke: #dfdfdf; stroke-width: 0.8; stroke-linecap: square"/>
     </g>
     <g id="line2d_6">
      <g>
       <use xlink:href="#me9d3796ef1" x="89.228676" y="123.732283" style="fill: #555555; stroke: #555555; stroke-width: 0.8"/>
      </g>
     </g>
     <g id="text_2">
      <!-- 5c -->
      <g style="fill: #555555" transform="translate(83.298208 138.330721) scale(0.1 -0.1)">
       <defs>
        <path id="DejaVuSans-63" d="M 3122 3366 
L 3122 2828 
Q 2878 2963 2633 3030 
Q 2388 3097 2138 3097 
Q 1578 3097 1268 2742 
Q 959 2388 959 1747 
Q 959 1106 1268 751 
Q 1578 397 2138 397 
Q 2388 397 2633 464 
Q 2878 531 3122 666 
L 3122 134 
Q 2881 22 2623 -34 
Q 2366 -91 2075 -91 
Q 1284 -91 818 406 
Q 353 903 353 1747 
Q 353 2603 823 3093 
Q 1294 3584 2113 3584 
Q 2378 3584 2631 3529 
Q 2884 3475 3122 3366 
z
" transform="scale(0.015625)"/>
       </defs>
       <use xlink:href="#DejaVuSans-35"/>
       <use xlink:href="#DejaVuSans-63" x="63.623047"/>
      </g>
     </g>
    </g>
    <g id="xtick_4">
     <g id="line2d_7">
      <path d="M 108.305877 123.732283 
L 108.305877 0.72 
" clip-path="url(#p42ea69e535)" style="fill: none; stroke: #dfdfdf; stroke-width: 0.8; stroke-linecap: square"/>
     </g>
     <g id="line2d_8">
      <g>
       <use xlink:href="#me9d3796ef1" x="108.305877" y="123.732283" style="fill: #555555; stroke: #555555; stroke-width: 0.8"/>
      </g>
     </g>
    </g>
    <g id="xtick_5">
     <g id="line2d_9">
      <path d="M 127.383078 123.732283 
L 127.383078 0.72 
" clip-path="url(#p42ea69e535)" style="fill: none; stroke: #dfdfdf; stroke-width: 0.8; stroke-linecap: square"/>
     </g>
     <g id="line2d_10">
      <g>
       <use xlink:href="#me9d3796ef1" x="127.383078" y="123.732283" style="fill: #555555; stroke: #555555; stroke-width: 0.8"/>
      </g>
     </g>
     <g id="text_3">
      <!-- 6a -->
      <g style="fill: #555555" transform="translate(121.137765 138.330721) scale(0.1 -0.1)">
       <defs>
        <path id="DejaVuSans-36" d="M 2113 2584 
Q 1688 2584 1439 2293 
Q 1191 2003 1191 1497 
Q 1191 994 1439 701 
Q 1688 409 2113 409 
Q 2538 409 2786 701 
Q 3034 994 3034 1497 
Q 3034 2003 2786 2293 
Q 2538 2584 2113 2584 
z
M 3366 4563 
L 3366 3988 
Q 3128 4100 2886 4159 
Q 2644 4219 2406 4219 
Q 1781 4219 1451 3797 
Q 1122 3375 1075 2522 
Q 1259 2794 1537 2939 
Q 1816 3084 2150 3084 
Q 2853 3084 3261 2657 
Q 3669 2231 3669 1497 
Q 3669 778 3244 343 
Q 2819 -91 2113 -91 
Q 1303 -91 875 529 
Q 447 1150 447 2328 
Q 447 3434 972 4092 
Q 1497 4750 2381 4750 
Q 2619 4750 2861 4703 
Q 3103 4656 3366 4563 
z
" transform="scale(0.015625)"/>
        <path id="DejaVuSans-61" d="M 2194 1759 
Q 1497 1759 1228 1600 
Q 959 1441 959 1056 
Q 959 750 1161 570 
Q 1363 391 1709 391 
Q 2188 391 2477 730 
Q 2766 1069 2766 1631 
L 2766 1759 
L 2194 1759 
z
M 3341 1997 
L 3341 0 
L 2766 0 
L 2766 531 
Q 2569 213 2275 61 
Q 1981 -91 1556 -91 
Q 1019 -91 701 211 
Q 384 513 384 1019 
Q 384 1609 779 1909 
Q 1175 2209 1959 2209 
L 2766 2209 
L 2766 2266 
Q 2766 2663 2505 2880 
Q 2244 3097 1772 3097 
Q 1472 3097 1187 3025 
Q 903 2953 641 2809 
L 641 3341 
Q 956 3463 1253 3523 
Q 1550 3584 1831 3584 
Q 2591 3584 2966 3190 
Q 3341 2797 3341 1997 
z
" transform="scale(0.015625)"/>
       </defs>
       <use xlink:href="#DejaVuSans-36"/>
       <use xlink:href="#DejaVuSans-61" x="63.623047"/>
      </g>
     </g>
    </g>
    <g id="xtick_6">
     <g id="line2d_11">
      <path d="M 146.460278 123.732283 
L 146.460278 0.72 
" clip-path="url(#p42ea69e535)" style="fill: none; stroke: #dfdfdf; stroke-width: 0.8; stroke-linecap: square"/>
     </g>
     <g id="line2d_12">
      <g>
       <use xlink:href="#me9d3796ef1" x="146.460278" y="123.732283" style="fill: #555555; stroke: #555555; stroke-width: 0.8"/>
      </g>
     </g>
    </g>
    <g id="xtick_7">
     <g id="line2d_13">
      <path d="M 165.537479 123.732283 
L 165.537479 0.72 
" clip-path="url(#p42ea69e535)" style="fill: none; stroke: #dfdfdf; stroke-width: 0.8; stroke-linecap: square"/>
     </g>
     <g id="line2d_14">
      <g>
       <use xlink:href="#me9d3796ef1" x="165.537479" y="123.732283" style="fill: #555555; stroke: #555555; stroke-width: 0.8"/>
      </g>
     </g>
     <g id="text_4">
      <!-- 6b -->
      <g style="fill: #555555" transform="translate(159.18201 138.330721) scale(0.1 -0.1)">
       <use xlink:href="#DejaVuSans-36"/>
       <use xlink:href="#DejaVuSans-62" x="63.623047"/>
      </g>
     </g>
    </g>
    <g id="xtick_8">
     <g id="line2d_15">
      <path d="M 184.61468 123.732283 
L 184.61468 0.72 
" clip-path="url(#p42ea69e535)" style="fill: none; stroke: #dfdfdf; stroke-width: 0.8; stroke-linecap: square"/>
     </g>
     <g id="line2d_16">
      <g>
       <use xlink:href="#me9d3796ef1" x="184.61468" y="123.732283" style="fill: #555555; stroke: #555555; stroke-width: 0.8"/>
      </g>
     </g>
    </g>
    <g id="xtick_9">
     <g id="line2d_17">
      <path d="M 203.69188 123.732283 
L 203.69188 0.72 
" clip-path="url(#p42ea69e535)" style="fill: none; stroke: #dfdfdf; stroke-width: 0.8; stroke-linecap: square"/>
     </g>
     <g id="line2d_18">
      <g>
       <use xlink:href="#me9d3796ef1" x="203.69188" y="123.732283" style="fill: #555555; stroke: #555555; stroke-width: 0.8"/>
      </g>
     </g>
     <g id="text_5">
      <!-- 6c -->
      <g style="fill: #555555" transform="translate(197.761412 138.330721) scale(0.1 -0.1)">
       <use xlink:href="#DejaVuSans-36"/>
       <use xlink:href="#DejaVuSans-63" x="63.623047"/>
      </g>
     </g>
    </g>
    <g id="xtick_10">
     <g id="line2d_19">
      <path d="M 222.769081 123.732283 
L 222.769081 0.72 
" clip-path="url(#p42ea69e535)" style="fill: none; stroke: #dfdfdf; stroke-width: 0.8; stroke-linecap: square"/>
     </g>
     <g id="line2d_20">
      <g>
       <use xlink:href="#me9d3796ef1" x="222.769081" y="123.732283" style="fill: #555555; stroke: #555555; stroke-width: 0.8"/>
      </g>
     </g>
    </g>
    <g id="xtick_11">
     <g id="line2d_21">
      <path d="M 241.846282 123.732283 
L 241.846282 0.72 
" clip-path="url(#p42ea69e535)" style="fill: none; stroke: #dfdfdf; stroke-width: 0.8; stroke-linecap: square"/>
     </g>
     <g id="line2d_22">
      <g>
       <use xlink:href="#me9d3796ef1" x="241.846282" y="123.732283" style="fill: #555555; stroke: #555555; stroke-width: 0.8"/>
      </g>
     </g>
     <g id="text_6">
      <!-- 7a -->
      <g style="fill: #555555" transform="translate(235.600969 138.330721) scale(0.1 -0.1)">
       <defs>
        <path id="DejaVuSans-37" d="M 525 4666 
L 3525 4666 
L 3525 4397 
L 1831 0 
L 1172 0 
L 2766 4134 
L 525 4134 
L 525 4666 
z
" transform="scale(0.015625)"/>
       </defs>
       <use xlink:href="#DejaVuSans-37"/>
       <use xlink:href="#DejaVuSans-61" x="63.623047"/>
      </g>
     </g>
    </g>
    <g id="xtick_12">
     <g id="line2d_23">
      <path d="M 260.923482 123.732283 
L 260.923482 0.72 
" clip-path="url(#p42ea69e535)" style="fill: none; stroke: #dfdfdf; stroke-width: 0.8; stroke-linecap: square"/>
     </g>
     <g id="line2d_24">
      <g>
       <use xlink:href="#me9d3796ef1" x="260.923482" y="123.732283" style="fill: #555555; stroke: #555555; stroke-width: 0.8"/>
      </g>
     </g>
    </g>
    <g id="xtick_13">
     <g id="line2d_25">
      <path d="M 280.000683 123.732283 
L 280.000683 0.72 
" clip-path="url(#p42ea69e535)" style="fill: none; stroke: #dfdfdf; stroke-width: 0.8; stroke-linecap: square"/>
     </g>
     <g id="line2d_26">
      <g>
       <use xlink:href="#me9d3796ef1" x="280.000683" y="123.732283" style="fill: #555555; stroke: #555555; stroke-width: 0.8"/>
      </g>
     </g>
     <g id="text_7">
      <!-- 7b -->
      <g style="fill: #555555" transform="translate(273.645214 138.330721) scale(0.1 -0.1)">
       <use xlink:href="#DejaVuSans-37"/>
       <use xlink:href="#DejaVuSans-62" x="63.623047"/>
      </g>
     </g>
    </g>
    <g id="xtick_14">
     <g id="line2d_27">
      <path d="M 299.077884 123.732283 
L 299.077884 0.72 
" clip-path="url(#p42ea69e535)" style="fill: none; stroke: #dfdfdf; stroke-width: 0.8; stroke-linecap: square"/>
     </g>
     <g id="line2d_28">
      <g>
       <use xlink:href="#me9d3796ef1" x="299.077884" y="123.732283" style="fill: #555555; stroke: #555555; stroke-width: 0.8"/>
      </g>
     </g>
    </g>
    <g id="xtick_15">
     <g id="line2d_29">
      <path d="M 318.155084 123.732283 
L 318.155084 0.72 
" clip-path="url(#p42ea69e535)" style="fill: none; stroke: #dfdfdf; stroke-width: 0.8; stroke-linecap: square"/>
     </g>
     <g id="line2d_30">
      <g>
       <use xlink:href="#me9d3796ef1" x="318.155084" y="123.732283" style="fill: #555555; stroke: #555555; stroke-width: 0.8"/>
      </g>
     </g>
     <g id="text_8">
      <!-- 7c -->
      <g style="fill: #555555" transform="translate(312.224615 138.330721) scale(0.1 -0.1)">
       <use xlink:href="#DejaVuSans-37"/>
       <use xlink:href="#DejaVuSans-63" x="63.623047"/>
      </g>
     </g>
    </g>
    <g id="xtick_16">
     <g id="line2d_31">
      <path d="M 337.232285 123.732283 
L 337.232285 0.72 
" clip-path="url(#p42ea69e535)" style="fill: none; stroke: #dfdfdf; stroke-width: 0.8; stroke-linecap: square"/>
     </g>
     <g id="line2d_32">
      <g>
       <use xlink:href="#me9d3796ef1" x="337.232285" y="123.732283" style="fill: #555555; stroke: #555555; stroke-width: 0.8"/>
      </g>
     </g>
    </g>
    <g id="xtick_17">
     <g id="line2d_33">
      <path d="M 356.309485 123.732283 
L 356.309485 0.72 
" clip-path="url(#p42ea69e535)" style="fill: none; stroke: #dfdfdf; stroke-width: 0.8; stroke-linecap: square"/>
     </g>
     <g id="line2d_34">
      <g>
       <use xlink:href="#me9d3796ef1" x="356.309485" y="123.732283" style="fill: #555555; stroke: #555555; stroke-width: 0.8"/>
      </g>
     </g>
     <g id="text_9">
      <!-- 8a -->
      <g style="fill: #555555" transform="translate(350.064173 138.330721) scale(0.1 -0.1)">
       <defs>
        <path id="DejaVuSans-38" d="M 2034 2216 
Q 1584 2216 1326 1975 
Q 1069 1734 1069 1313 
Q 1069 891 1326 650 
Q 1584 409 2034 409 
Q 2484 409 2743 651 
Q 3003 894 3003 1313 
Q 3003 1734 2745 1975 
Q 2488 2216 2034 2216 
z
M 1403 2484 
Q 997 2584 770 2862 
Q 544 3141 544 3541 
Q 544 4100 942 4425 
Q 1341 4750 2034 4750 
Q 2731 4750 3128 4425 
Q 3525 4100 3525 3541 
Q 3525 3141 3298 2862 
Q 3072 2584 2669 2484 
Q 3125 2378 3379 2068 
Q 3634 1759 3634 1313 
Q 3634 634 3220 271 
Q 2806 -91 2034 -91 
Q 1263 -91 848 271 
Q 434 634 434 1313 
Q 434 1759 690 2068 
Q 947 2378 1403 2484 
z
M 1172 3481 
Q 1172 3119 1398 2916 
Q 1625 2713 2034 2713 
Q 2441 2713 2670 2916 
Q 2900 3119 2900 3481 
Q 2900 3844 2670 4047 
Q 2441 4250 2034 4250 
Q 1625 4250 1398 4047 
Q 1172 3844 1172 3481 
z
" transform="scale(0.015625)"/>
       </defs>
       <use xlink:href="#DejaVuSans-38"/>
       <use xlink:href="#DejaVuSans-61" x="63.623047"/>
      </g>
     </g>
    </g>
    <g id="xtick_18">
     <g id="line2d_35">
      <path d="M 375.386686 123.732283 
L 375.386686 0.72 
" clip-path="url(#p42ea69e535)" style="fill: none; stroke: #dfdfdf; stroke-width: 0.8; stroke-linecap: square"/>
     </g>
     <g id="line2d_36">
      <g>
       <use xlink:href="#me9d3796ef1" x="375.386686" y="123.732283" style="fill: #555555; stroke: #555555; stroke-width: 0.8"/>
      </g>
     </g>
    </g>
    <g id="xtick_19">
     <g id="line2d_37">
      <path d="M 394.463887 123.732283 
L 394.463887 0.72 
" clip-path="url(#p42ea69e535)" style="fill: none; stroke: #dfdfdf; stroke-width: 0.8; stroke-linecap: square"/>
     </g>
     <g id="line2d_38">
      <g>
       <use xlink:href="#me9d3796ef1" x="394.463887" y="123.732283" style="fill: #555555; stroke: #555555; stroke-width: 0.8"/>
      </g>
     </g>
     <g id="text_10">
      <!-- 8b -->
      <g style="fill: #555555" transform="translate(388.108418 138.330721) scale(0.1 -0.1)">
       <use xlink:href="#DejaVuSans-38"/>
       <use xlink:href="#DejaVuSans-62" x="63.623047"/>
      </g>
     </g>
    </g>
    <g id="xtick_20">
     <g id="line2d_39">
      <path d="M 413.541087 123.732283 
L 413.541087 0.72 
" clip-path="url(#p42ea69e535)" style="fill: none; stroke: #dfdfdf; stroke-width: 0.8; stroke-linecap: square"/>
     </g>
     <g id="line2d_40">
      <g>
       <use xlink:href="#me9d3796ef1" x="413.541087" y="123.732283" style="fill: #555555; stroke: #555555; stroke-width: 0.8"/>
      </g>
     </g>
    </g>
    <g id="xtick_21">
     <g id="line2d_41">
      <path d="M 432.618288 123.732283 
L 432.618288 0.72 
" clip-path="url(#p42ea69e535)" style="fill: none; stroke: #dfdfdf; stroke-width: 0.8; stroke-linecap: square"/>
     </g>
     <g id="line2d_42">
      <g>
       <use xlink:href="#me9d3796ef1" x="432.618288" y="123.732283" style="fill: #555555; stroke: #555555; stroke-width: 0.8"/>
      </g>
     </g>
     <g id="text_11">
      <!-- 8c -->
      <g style="fill: #555555" transform="translate(426.687819 138.330721) scale(0.1 -0.1)">
       <use xlink:href="#DejaVuSans-38"/>
       <use xlink:href="#DejaVuSans-63" x="63.623047"/>
      </g>
     </g>
    </g>
    <g id="xtick_22">
     <g id="line2d_43">
      <path d="M 451.695489 123.732283 
L 451.695489 0.72 
" clip-path="url(#p42ea69e535)" style="fill: none; stroke: #dfdfdf; stroke-width: 0.8; stroke-linecap: square"/>
     </g>
     <g id="line2d_44">
      <g>
       <use xlink:href="#me9d3796ef1" x="451.695489" y="123.732283" style="fill: #555555; stroke: #555555; stroke-width: 0.8"/>
      </g>
     </g>
    </g>
   </g>
   <g id="matplotlib.axis_2">
    <g id="ytick_1">
     <g id="line2d_45">
      <path d="M 21.6 123.732283 
L 481.169764 123.732283 
" clip-path="url(#p42ea69e535)" style="fill: none; stroke: #dfdfdf; stroke-width: 0.8; stroke-linecap: square"/>
     </g>
     <g id="line2d_46">
      <defs>
       <path id="m6df8b58719" d="M 0 0 
L -3.5 0 
" style="stroke: #555555; stroke-width: 0.8"/>
      </defs>
      <g>
       <use xlink:href="#m6df8b58719" x="21.6" y="123.732283" style="fill: #555555; stroke: #555555; stroke-width: 0.8"/>
      </g>
     </g>
     <g id="text_12">
      <!-- 0 -->
      <g style="fill: #555555" transform="translate(8.2375 127.531502) scale(0.1 -0.1)">
       <defs>
        <path id="DejaVuSans-30" d="M 2034 4250 
Q 1547 4250 1301 3770 
Q 1056 3291 1056 2328 
Q 1056 1369 1301 889 
Q 1547 409 2034 409 
Q 2525 409 2770 889 
Q 3016 1369 3016 2328 
Q 3016 3291 2770 3770 
Q 2525 4250 2034 4250 
z
M 2034 4750 
Q 2819 4750 3233 4129 
Q 3647 3509 3647 2328 
Q 3647 1150 3233 529 
Q 2819 -91 2034 -91 
Q 1250 -91 836 529 
Q 422 1150 422 2328 
Q 422 3509 836 4129 
Q 1250 4750 2034 4750 
z
" transform="scale(0.015625)"/>
       </defs>
       <use xlink:href="#DejaVuSans-30"/>
      </g>
     </g>
    </g>
    <g id="ytick_2">
     <g id="line2d_47">
      <path d="M 21.6 109.087964 
L 481.169764 109.087964 
" clip-path="url(#p42ea69e535)" style="fill: none; stroke: #dfdfdf; stroke-width: 0.8; stroke-linecap: square"/>
     </g>
     <g id="line2d_48">
      <g>
       <use xlink:href="#m6df8b58719" x="21.6" y="109.087964" style="fill: #555555; stroke: #555555; stroke-width: 0.8"/>
      </g>
     </g>
     <g id="text_13">
      <!-- 2 -->
      <g style="fill: #555555" transform="translate(8.2375 112.887183) scale(0.1 -0.1)">
       <defs>
        <path id="DejaVuSans-32" d="M 1228 531 
L 3431 531 
L 3431 0 
L 469 0 
L 469 531 
Q 828 903 1448 1529 
Q 2069 2156 2228 2338 
Q 2531 2678 2651 2914 
Q 2772 3150 2772 3378 
Q 2772 3750 2511 3984 
Q 2250 4219 1831 4219 
Q 1534 4219 1204 4116 
Q 875 4013 500 3803 
L 500 4441 
Q 881 4594 1212 4672 
Q 1544 4750 1819 4750 
Q 2544 4750 2975 4387 
Q 3406 4025 3406 3419 
Q 3406 3131 3298 2873 
Q 3191 2616 2906 2266 
Q 2828 2175 2409 1742 
Q 1991 1309 1228 531 
z
" transform="scale(0.015625)"/>
       </defs>
       <use xlink:href="#DejaVuSans-32"/>
      </g>
     </g>
    </g>
    <g id="ytick_3">
     <g id="line2d_49">
      <path d="M 21.6 94.443645 
L 481.169764 94.443645 
" clip-path="url(#p42ea69e535)" style="fill: none; stroke: #dfdfdf; stroke-width: 0.8; stroke-linecap: square"/>
     </g>
     <g id="line2d_50">
      <g>
       <use xlink:href="#m6df8b58719" x="21.6" y="94.443645" style="fill: #555555; stroke: #555555; stroke-width: 0.8"/>
      </g>
     </g>
     <g id="text_14">
      <!-- 4 -->
      <g style="fill: #555555" transform="translate(8.2375 98.242863) scale(0.1 -0.1)">
       <defs>
        <path id="DejaVuSans-34" d="M 2419 4116 
L 825 1625 
L 2419 1625 
L 2419 4116 
z
M 2253 4666 
L 3047 4666 
L 3047 1625 
L 3713 1625 
L 3713 1100 
L 3047 1100 
L 3047 0 
L 2419 0 
L 2419 1100 
L 313 1100 
L 313 1709 
L 2253 4666 
z
" transform="scale(0.015625)"/>
       </defs>
       <use xlink:href="#DejaVuSans-34"/>
      </g>
     </g>
    </g>
    <g id="ytick_4">
     <g id="line2d_51">
      <path d="M 21.6 79.799325 
L 481.169764 79.799325 
" clip-path="url(#p42ea69e535)" style="fill: none; stroke: #dfdfdf; stroke-width: 0.8; stroke-linecap: square"/>
     </g>
     <g id="line2d_52">
      <g>
       <use xlink:href="#m6df8b58719" x="21.6" y="79.799325" style="fill: #555555; stroke: #555555; stroke-width: 0.8"/>
      </g>
     </g>
     <g id="text_15">
      <!-- 6 -->
      <g style="fill: #555555" transform="translate(8.2375 83.598544) scale(0.1 -0.1)">
       <use xlink:href="#DejaVuSans-36"/>
      </g>
     </g>
    </g>
    <g id="ytick_5">
     <g id="line2d_53">
      <path d="M 21.6 65.155006 
L 481.169764 65.155006 
" clip-path="url(#p42ea69e535)" style="fill: none; stroke: #dfdfdf; stroke-width: 0.8; stroke-linecap: square"/>
     </g>
     <g id="line2d_54">
      <g>
       <use xlink:href="#m6df8b58719" x="21.6" y="65.155006" style="fill: #555555; stroke: #555555; stroke-width: 0.8"/>
      </g>
     </g>
     <g id="text_16">
      <!-- 8 -->
      <g style="fill: #555555" transform="translate(8.2375 68.954224) scale(0.1 -0.1)">
       <use xlink:href="#DejaVuSans-38"/>
      </g>
     </g>
    </g>
    <g id="ytick_6">
     <g id="line2d_55">
      <path d="M 21.6 50.510686 
L 481.169764 50.510686 
" clip-path="url(#p42ea69e535)" style="fill: none; stroke: #dfdfdf; stroke-width: 0.8; stroke-linecap: square"/>
     </g>
     <g id="line2d_56">
      <g>
       <use xlink:href="#m6df8b58719" x="21.6" y="50.510686" style="fill: #555555; stroke: #555555; stroke-width: 0.8"/>
      </g>
     </g>
     <g id="text_17">
      <!-- 10 -->
      <g style="fill: #555555" transform="translate(1.875 54.309905) scale(0.1 -0.1)">
       <defs>
        <path id="DejaVuSans-31" d="M 794 531 
L 1825 531 
L 1825 4091 
L 703 3866 
L 703 4441 
L 1819 4666 
L 2450 4666 
L 2450 531 
L 3481 531 
L 3481 0 
L 794 0 
L 794 531 
z
" transform="scale(0.015625)"/>
       </defs>
       <use xlink:href="#DejaVuSans-31"/>
       <use xlink:href="#DejaVuSans-30" x="63.623047"/>
      </g>
     </g>
    </g>
    <g id="ytick_7">
     <g id="line2d_57">
      <path d="M 21.6 35.866367 
L 481.169764 35.866367 
" clip-path="url(#p42ea69e535)" style="fill: none; stroke: #dfdfdf; stroke-width: 0.8; stroke-linecap: square"/>
     </g>
     <g id="line2d_58">
      <g>
       <use xlink:href="#m6df8b58719" x="21.6" y="35.866367" style="fill: #555555; stroke: #555555; stroke-width: 0.8"/>
      </g>
     </g>
     <g id="text_18">
      <!-- 12 -->
      <g style="fill: #555555" transform="translate(1.875 39.665585) scale(0.1 -0.1)">
       <use xlink:href="#DejaVuSans-31"/>
       <use xlink:href="#DejaVuSans-32" x="63.623047"/>
      </g>
     </g>
    </g>
    <g id="ytick_8">
     <g id="line2d_59">
      <path d="M 21.6 21.222047 
L 481.169764 21.222047 
" clip-path="url(#p42ea69e535)" style="fill: none; stroke: #dfdfdf; stroke-width: 0.8; stroke-linecap: square"/>
     </g>
     <g id="line2d_60">
      <g>
       <use xlink:href="#m6df8b58719" x="21.6" y="21.222047" style="fill: #555555; stroke: #555555; stroke-width: 0.8"/>
      </g>
     </g>
     <g id="text_19">
      <!-- 14 -->
      <g style="fill: #555555" transform="translate(1.875 25.021266) scale(0.1 -0.1)">
       <use xlink:href="#DejaVuSans-31"/>
       <use xlink:href="#DejaVuSans-34" x="63.623047"/>
      </g>
     </g>
    </g>
    <g id="ytick_9">
     <g id="line2d_61">
      <path d="M 21.6 6.577728 
L 481.169764 6.577728 
" clip-path="url(#p42ea69e535)" style="fill: none; stroke: #dfdfdf; stroke-width: 0.8; stroke-linecap: square"/>
     </g>
     <g id="line2d_62">
      <g>
       <use xlink:href="#m6df8b58719" x="21.6" y="6.577728" style="fill: #555555; stroke: #555555; stroke-width: 0.8"/>
      </g>
     </g>
     <g id="text_20">
      <!-- 16 -->
      <g style="fill: #555555" transform="translate(1.875 10.376947) scale(0.1 -0.1)">
       <use xlink:href="#DejaVuSans-31"/>
       <use xlink:href="#DejaVuSans-36" x="63.623047"/>
      </g>
     </g>
    </g>
    <g id="ytick_10">
     <g id="line2d_63">
      <path d="M 21.6 116.410124 
L 481.169764 116.410124 
" clip-path="url(#p42ea69e535)" style="fill: none; stroke-dasharray: 2.22,0.96; stroke-dashoffset: 0; stroke: #efefef; stroke-width: 0.6"/>
     </g>
     <g id="line2d_64">
      <defs>
       <path id="ma5707cf7cb" d="M 0 0 
L -2 0 
" style="stroke: #dfdfdf; stroke-width: 0.6"/>
      </defs>
      <g>
       <use xlink:href="#ma5707cf7cb" x="21.6" y="116.410124" style="fill: #dfdfdf; stroke: #dfdfdf; stroke-width: 0.6"/>
      </g>
     </g>
    </g>
    <g id="ytick_11">
     <g id="line2d_65">
      <path d="M 21.6 101.765804 
L 481.169764 101.765804 
" clip-path="url(#p42ea69e535)" style="fill: none; stroke-dasharray: 2.22,0.96; stroke-dashoffset: 0; stroke: #efefef; stroke-width: 0.6"/>
     </g>
     <g id="line2d_66">
      <g>
       <use xlink:href="#ma5707cf7cb" x="21.6" y="101.765804" style="fill: #dfdfdf; stroke: #dfdfdf; stroke-width: 0.6"/>
      </g>
     </g>
    </g>
    <g id="ytick_12">
     <g id="line2d_67">
      <path d="M 21.6 87.121485 
L 481.169764 87.121485 
" clip-path="url(#p42ea69e535)" style="fill: none; stroke-dasharray: 2.22,0.96; stroke-dashoffset: 0; stroke: #efefef; stroke-width: 0.6"/>
     </g>
     <g id="line2d_68">
      <g>
       <use xlink:href="#ma5707cf7cb" x="21.6" y="87.121485" style="fill: #dfdfdf; stroke: #dfdfdf; stroke-width: 0.6"/>
      </g>
     </g>
    </g>
    <g id="ytick_13">
     <g id="line2d_69">
      <path d="M 21.6 72.477165 
L 481.169764 72.477165 
" clip-path="url(#p42ea69e535)" style="fill: none; stroke-dasharray: 2.22,0.96; stroke-dashoffset: 0; stroke: #efefef; stroke-width: 0.6"/>
     </g>
     <g id="line2d_70">
      <g>
       <use xlink:href="#ma5707cf7cb" x="21.6" y="72.477165" style="fill: #dfdfdf; stroke: #dfdfdf; stroke-width: 0.6"/>
      </g>
     </g>
    </g>
    <g id="ytick_14">
     <g id="line2d_71">
      <path d="M 21.6 57.832846 
L 481.169764 57.832846 
" clip-path="url(#p42ea69e535)" style="fill: none; stroke-dasharray: 2.22,0.96; stroke-dashoffset: 0; stroke: #efefef; stroke-width: 0.6"/>
     </g>
     <g id="line2d_72">
      <g>
       <use xlink:href="#ma5707cf7cb" x="21.6" y="57.832846" style="fill: #dfdfdf; stroke: #dfdfdf; stroke-width: 0.6"/>
      </g>
     </g>
    </g>
    <g id="ytick_15">
     <g id="line2d_73">
      <path d="M 21.6 43.188526 
L 481.169764 43.188526 
" clip-path="url(#p42ea69e535)" style="fill: none; stroke-dasharray: 2.22,0.96; stroke-dashoffset: 0; stroke: #efefef; stroke-width: 0.6"/>
     </g>
     <g id="line2d_74">
      <g>
       <use xlink:href="#ma5707cf7cb" x="21.6" y="43.188526" style="fill: #dfdfdf; stroke: #dfdfdf; stroke-width: 0.6"/>
      </g>
     </g>
    </g>
    <g id="ytick_16">
     <g id="line2d_75">
      <path d="M 21.6 28.544207 
L 481.169764 28.544207 
" clip-path="url(#p42ea69e535)" style="fill: none; stroke-dasharray: 2.22,0.96; stroke-dashoffset: 0; stroke: #efefef; stroke-width: 0.6"/>
     </g>
     <g id="line2d_76">
      <g>
       <use xlink:href="#ma5707cf7cb" x="21.6" y="28.544207" style="fill: #dfdfdf; stroke: #dfdfdf; stroke-width: 0.6"/>
      </g>
     </g>
    </g>
    <g id="ytick_17">
     <g id="line2d_77">
      <path d="M 21.6 13.899888 
L 481.169764 13.899888 
" clip-path="url(#p42ea69e535)" style="fill: none; stroke-dasharray: 2.22,0.96; stroke-dashoffset: 0; stroke: #efefef; stroke-width: 0.6"/>
     </g>
     <g id="line2d_78">
      <g>
       <use xlink:href="#ma5707cf7cb" x="21.6" y="13.899888" style="fill: #dfdfdf; stroke: #dfdfdf; stroke-width: 0.6"/>
      </g>
     </g>
    </g>
   </g>
   <g id="patch_3">
    <path d="M 42.489535 123.732283 
L 59.659015 123.732283 
L 59.659015 6.577728 
L 42.489535 6.577728 
z
" clip-path="url(#p42ea69e535)" style="fill: #0fa1d3"/>
   </g>
   <g id="patch_4">
    <path d="M 61.566735 123.732283 
L 78.736216 123.732283 
L 78.736216 116.410124 
L 61.566735 116.410124 
z
" clip-path="url(#p42ea69e535)" style="fill: #079dd0"/>
   </g>
   <g id="patch_5">
    <path d="M 80.643936 123.732283 
L 97.813417 123.732283 
L 97.813417 101.765804 
L 80.643936 101.765804 
z
" clip-path="url(#p42ea69e535)" style="fill: #e2f0b6"/>
   </g>
   <g id="patch_6">
    <path d="M 99.721137 123.732283 
L 116.890617 123.732283 
L 116.890617 123.000067 
L 99.721137 123.000067 
z
" clip-path="url(#p42ea69e535)" style="fill: #c5e26d"/>
   </g>
   <g id="patch_7">
    <path d="M 118.798337 123.732283 
L 135.967818 123.732283 
L 135.967818 65.155006 
L 118.798337 65.155006 
z
" clip-path="url(#p42ea69e535)" style="fill: #a8d324"/>
   </g>
   <g id="patch_8">
    <path d="M 137.875538 123.732283 
L 155.045019 123.732283 
L 155.045019 79.799325 
L 137.875538 79.799325 
z
" clip-path="url(#p42ea69e535)" style="fill: #a8d324"/>
   </g>
   <g id="patch_9">
    <path d="M 156.952739 123.732283 
L 174.122219 123.732283 
L 174.122219 101.765804 
L 156.952739 101.765804 
z
" clip-path="url(#p42ea69e535)" style="fill: #83b600"/>
   </g>
   <g id="patch_10">
    <path d="M 176.029939 123.732283 
L 193.19942 123.732283 
L 193.19942 79.799325 
L 176.029939 79.799325 
z
" clip-path="url(#p42ea69e535)" style="fill: #83b600"/>
   </g>
   <g id="patch_11">
    <path d="M 195.10714 123.732283 
L 212.276621 123.732283 
L 212.276621 101.765804 
L 195.10714 101.765804 
z
" clip-path="url(#p42ea69e535)" style="fill: #ffecc0"/>
   </g>
   <g id="patch_12">
    <path d="M 214.184341 123.732283 
L 231.353821 123.732283 
L 231.353821 109.087964 
L 214.184341 109.087964 
z
" clip-path="url(#p42ea69e535)" style="fill: #ffd980"/>
   </g>
   <g id="patch_13">
    <path d="M 233.261541 123.732283 
L 250.431022 123.732283 
L 250.431022 101.765804 
L 233.261541 101.765804 
z
" clip-path="url(#p42ea69e535)" style="fill: #ffc641"/>
   </g>
   <g id="patch_14">
    <path d="M 252.338742 123.732283 
L 269.508223 123.732283 
L 269.508223 101.765804 
L 252.338742 101.765804 
z
" clip-path="url(#p42ea69e535)" style="fill: #ffb61c"/>
   </g>
   <g id="patch_15">
    <path d="M 271.415943 123.732283 
L 288.585423 123.732283 
L 288.585423 116.410124 
L 271.415943 116.410124 
z
" clip-path="url(#p42ea69e535)" style="fill: #ffa00e"/>
   </g>
   <g id="patch_16">
    <path d="M 290.493143 123.732283 
L 307.662624 123.732283 
L 307.662624 57.832846 
L 290.493143 57.832846 
z
" clip-path="url(#p42ea69e535)" style="fill: #ff9105"/>
   </g>
   <g id="patch_17">
    <path d="M 309.570344 123.732283 
L 326.739824 123.732283 
L 326.739824 94.443645 
L 309.570344 94.443645 
z
" clip-path="url(#p42ea69e535)" style="fill: #ffcaca"/>
   </g>
   <g id="patch_18">
    <path d="M 328.647545 123.732283 
L 345.817025 123.732283 
L 345.817025 57.832846 
L 328.647545 57.832846 
z
" clip-path="url(#p42ea69e535)" style="fill: #ff9494"/>
   </g>
   <g id="patch_19">
    <path d="M 347.724745 123.732283 
L 364.894226 123.732283 
L 364.894226 87.121485 
L 347.724745 87.121485 
z
" clip-path="url(#p42ea69e535)" style="fill: #ff5f5f"/>
   </g>
   <g id="patch_20">
    <path d="M 366.801946 123.732283 
L 383.971426 123.732283 
L 383.971426 94.443645 
L 366.801946 94.443645 
z
" clip-path="url(#p42ea69e535)" style="fill: #f83a3a"/>
   </g>
   <g id="patch_21">
    <path d="M 385.879147 123.732283 
L 403.048627 123.732283 
L 403.048627 109.087964 
L 385.879147 109.087964 
z
" clip-path="url(#p42ea69e535)" style="fill: #e21d1d"/>
   </g>
   <g id="patch_22">
    <path d="M 404.956347 123.732283 
L 422.125828 123.732283 
L 422.125828 116.410124 
L 404.956347 116.410124 
z
" clip-path="url(#p42ea69e535)" style="fill: #d30a0a"/>
   </g>
   <g id="patch_23">
    <path d="M 424.033548 123.732283 
L 441.203028 123.732283 
L 441.203028 123.000067 
L 424.033548 123.000067 
z
" clip-path="url(#p42ea69e535)" style="fill: #0fa1d3"/>
   </g>
   <g id="patch_24">
    <path d="M 443.110748 123.732283 
L 460.280229 123.732283 
L 460.280229 123.000067 
L 443.110748 123.000067 
z
" clip-path="url(#p42ea69e535)" style="fill: #079dd0"/>
   </g>
   <g id="patch_25">
    <path d="M 21.6 123.732283 
L 21.6 0.72 
" style="fill: none; stroke: #ffffff; stroke-linejoin: miter; stroke-linecap: square"/>
   </g>
   <g id="patch_26">
    <path d="M 481.169764 123.732283 
L 481.169764 0.72 
" style="fill: none; stroke: #ffffff; stroke-linejoin: miter; stroke-linecap: square"/>
   </g>
   <g id="patch_27">
    <path d="M 21.6 123.732283 
L 481.169764 123.732283 
" style="fill: none; stroke: #ffffff; stroke-linejoin: miter; stroke-linecap: square"/>
   </g>
   <g id="patch_28">
    <path d="M 21.6 0.72 
L 481.169764 0.72 
" style="fill: none; stroke: #ffffff; stroke-linejoin: miter; stroke-linecap: square"/>
   </g>
  </g>
 </g>
 <defs>
  <clipPath id="p42ea69e535">
   <rect x="21.6" y="0.72" width="459.569764" height="123.012283"/>
  </clipPath>
 </defs>
</svg>
